<svg style="position: absolute; width: 0; height: 0;" width="0" height="0" version="1.1" xmlns="http://www.w3.org/2000/svg" xmlns:xlink="http://www.w3.org/1999/xlink">
<defs>
<symbol id="svg-paper" viewBox="0 0 1024 1024">
  <title>paper</title>
  <path d="M213.333 0h597.333q53 0 90.5 37.5t37.5 90.5v768q0 53-37.5 90.5t-90.5 37.5h-597.333q-53 0-90.5-37.5t-37.5-90.5v-768q0-53 37.5-90.5t90.5-37.5zM341.333 725.333h341.333q17.667 0 30.167 12.5t12.5 30.167-12.5 30.167-30.167 12.5h-341.333q-17.667 0-30.167-12.5t-12.5-30.167 12.5-30.167 30.167-12.5zM341.333 554.667h341.333q17.667 0 30.167 12.5t12.5 30.167-12.5 30.167-30.167 12.5h-341.333q-17.667 0-30.167-12.5t-12.5-30.167 12.5-30.167 30.167-12.5zM810.667 85.333h-597.333q-17.667 0-30.167 12.5t-12.5 30.167v768q0 17.667 12.5 30.167t30.167 12.5h597.333q17.667 0 30.167-12.5t12.5-30.167v-768q0-17.667-12.5-30.167t-30.167-12.5zM341.333 384h341.333q17.667 0 30.167 12.5t12.5 30.167-12.5 30.167-30.167 12.5h-341.333q-17.667 0-30.167-12.5t-12.5-30.167 12.5-30.167 30.167-12.5zM341.333 213.333h170.667q17.667 0 30.167 12.5t12.5 30.167-12.5 30.167-30.167 12.5h-170.667q-17.667 0-30.167-12.5t-12.5-30.167 12.5-30.167 30.167-12.5z"></path>
</symbol>
<symbol id="svg-cross" viewBox="0 0 1024 1024">
  <title>cross</title>
  <path d="M810.667 170.667q18.333 0 30.5 12.167t12.167 30.5q0 18-12.333 30.333l-268.667 268.333 268.667 268.333q12.333 12.333 12.333 30.333 0 18.333-12.167 30.5t-30.5 12.167q-18 0-30.333-12.333l-268.333-268.667-268.333 268.667q-12.333 12.333-30.333 12.333-18.333 0-30.5-12.167t-12.167-30.5q0-18 12.333-30.333l268.667-268.333-268.667-268.333q-12.333-12.333-12.333-30.333 0-18.333 12.167-30.5t30.5-12.167q18 0 30.333 12.333l268.333 268.667 268.333-268.667q12.333-12.333 30.333-12.333z"></path>
</symbol>
</defs>
</svg>
